<?xml version="1.0" encoding="utf-8"?>
<!-- Generator: Adobe Illustrator 17.0.0, SVG Export Plug-In . SVG Version: 6.00 Build 0)  -->
<!DOCTYPE svg PUBLIC "-//W3C//DTD SVG 1.1//EN" "http://www.w3.org/Graphics/SVG/1.1/DTD/svg11.dtd">
<svg version="1.1" id="Layer_1" xmlns="http://www.w3.org/2000/svg" xmlns:xlink="http://www.w3.org/1999/xlink" x="0px" y="0px"
	 width="128px" height="128px" viewBox="0 0 128 128" enable-background="new 0 0 128 128" xml:space="preserve">
<g>
	<path fill="#FFFFFF" d="M106.749,88.324C95.199,93.273,80.017,96,64,96c-16.017,0-31.199-2.727-42.749-7.676
		c-2.582-1.107-4.847-2.269-6.851-3.463c-2.545-1.517-4.658-3.086-6.4-4.665V96c0,13.255,25.072,24,56,24c30.928,0,56-10.745,56-24
		V80.195c-1.742,1.58-3.855,3.149-6.4,4.665C111.596,86.055,109.331,87.217,106.749,88.324z"/>
	<path fill="#FFFFFF" d="M113.6,52.861c-2.004,1.194-4.269,2.357-6.851,3.463C95.199,61.274,80.017,64,64,64
		c-16.017,0-31.199-2.726-42.749-7.676c-2.582-1.107-4.847-2.269-6.851-3.463c-2.545-1.517-4.658-3.086-6.4-4.665V64
		c0,4.022,2.32,7.81,6.4,11.139c2.157,1.76,4.803,3.392,7.871,4.861C32.525,84.909,47.417,88,64,88c16.583,0,31.475-3.091,41.729-8
		c3.068-1.469,5.714-3.1,7.871-4.861c4.08-3.33,6.4-7.117,6.4-11.139V48.195C118.258,49.775,116.145,51.344,113.6,52.861z"/>
</g>
<path fill="#1890FF" d="M64,8C33.072,8,8,18.745,8,32c0,4.022,2.32,7.81,6.4,11.139c2.157,1.76,4.803,3.392,7.871,4.861
	C32.525,52.909,47.417,56,64,56c16.583,0,31.475-3.091,41.729-8c3.068-1.469,5.714-3.1,7.871-4.861c4.08-3.33,6.4-7.117,6.4-11.139
	C120,18.745,94.928,8,64,8z"/>
<path d="M106.749,7.676C95.199,2.726,80.017,0,64,0C47.983,0,32.801,2.726,21.251,7.676C2.761,15.601,0,26.317,0,32v32v32
	c0,5.683,2.761,16.399,21.251,24.324C32.801,125.273,47.983,128,64,128c16.017,0,31.199-2.727,42.749-7.676
	C125.239,112.399,128,101.683,128,96V64V32C128,26.317,125.239,15.601,106.749,7.676z M14.4,75.139C10.32,71.81,8,68.022,8,64
	V48.195c1.742,1.58,3.855,3.149,6.4,4.665c2.004,1.194,4.269,2.357,6.851,3.463C32.801,61.274,47.983,64,64,64
	c16.017,0,31.199-2.726,42.749-7.676c2.582-1.107,4.847-2.269,6.851-3.463c2.545-1.517,4.658-3.086,6.4-4.665V64
	c0,4.022-2.32,7.81-6.4,11.139c-2.157,1.76-4.803,3.392-7.871,4.861C95.475,84.909,80.583,88,64,88c-16.583,0-31.475-3.091-41.729-8
	C19.203,78.531,16.557,76.9,14.4,75.139z M64,8c30.928,0,56,10.745,56,24c0,4.022-2.32,7.81-6.4,11.139
	c-2.157,1.76-4.803,3.392-7.871,4.861C95.475,52.909,80.583,56,64,56c-16.583,0-31.475-3.091-41.729-8
	c-3.068-1.469-5.714-3.1-7.871-4.861C10.32,39.81,8,36.022,8,32C8,18.745,33.072,8,64,8z M64,120c-30.928,0-56-10.745-56-24V80.195
	c1.742,1.58,3.855,3.149,6.4,4.665c2.004,1.194,4.269,2.357,6.851,3.463C32.801,93.273,47.983,96,64,96
	c16.017,0,31.199-2.727,42.749-7.676c2.582-1.107,4.847-2.269,6.851-3.463c2.545-1.517,4.658-3.086,6.4-4.665V96
	C120,109.255,94.928,120,64,120z"/>
<g id="New_Symbol_1_">
</g>
</svg>
