<?xml version="1.0" encoding="utf-8"?>
<!-- Generator: Adobe Illustrator 17.0.0, SVG Export Plug-In . SVG Version: 6.00 Build 0)  -->
<!DOCTYPE svg PUBLIC "-//W3C//DTD SVG 1.1//EN" "http://www.w3.org/Graphics/SVG/1.1/DTD/svg11.dtd">
<svg version="1.1" id="Layer_1" xmlns="http://www.w3.org/2000/svg" xmlns:xlink="http://www.w3.org/1999/xlink" x="0px" y="0px"
	 width="128px" height="128px" viewBox="0 0 128 128" enable-background="new 0 0 128 128" xml:space="preserve">
<g id="New_Symbol_2_">
	<g id="New_Symbol_3_">
		<path d="M64,128c-16.017,0-31.199-2.727-42.749-7.676C2.761,112.399,0,101.683,0,96s2.761-16.399,21.251-24.324
			C32.801,66.727,47.983,64,64,64c16.017,0,31.199,2.727,42.749,7.676C125.239,79.601,128,90.317,128,96
			s-2.761,16.399-21.251,24.324C95.199,125.273,80.017,128,64,128z"/>
		<ellipse fill="#FFFFFF" cx="64" cy="96" rx="56" ry="24"/>
		<polyline fill="#FFFFFF" points="8,64 8,96 120,96 120,64 		"/>
		<path d="M64,96c-16.017,0-31.199-2.727-42.749-7.676C2.761,80.399,0,69.683,0,64s2.761-16.399,21.251-24.324
			C32.801,34.726,47.983,32,64,32c16.017,0,31.199,2.726,42.749,7.676C125.239,47.601,128,58.317,128,64
			s-2.761,16.399-21.251,24.324C95.199,93.273,80.017,96,64,96z"/>
		<ellipse fill="#FFFFFF" cx="64" cy="64" rx="56" ry="24"/>
		<polyline fill="#FFFFFF" points="8,32 8,64 120,64 120,32 		"/>
		<path d="M64,64c-16.017,0-31.199-2.726-42.749-7.676C2.761,48.399,0,37.683,0,32S2.761,15.601,21.251,7.676
			C32.801,2.726,47.983,0,64,0c16.017,0,31.199,2.726,42.749,7.676C125.239,15.601,128,26.317,128,32s-2.761,16.399-21.251,24.324
			C95.199,61.274,80.017,64,64,64z"/>
		<ellipse fill="#F5222D" cx="64" cy="32" rx="56" ry="24"/>
		<rect y="32" width="8" height="64"/>
		<rect x="120" y="32" width="8" height="64"/>
	</g>
</g>
<g id="New_Symbol_1_">
</g>
<g id="New_Symbol">
</g>
</svg>
